<?xml version="1.0" encoding="UTF-8"?>
<svg id="Layer_4" xmlns="http://www.w3.org/2000/svg" version="1.1" viewBox="0 0 966.71 468.38">
  <!-- Generator: Adobe Illustrator 30.1.0, SVG Export Plug-In . SVG Version: 2.1.1 Build 136)  -->
  <defs>
    <style>
      .st0 {
        fill: #fff;
      }
    </style>
  </defs>
  <path class="st0" d="M252.29,468.38s0-.02-.02-.05c-6.72-8.21-24.55-24.45-29.52-28.96-.84-.74-1.3-1.81-1.28-2.93l.05-18.13,33.08-.65s8.23,1.93-2.3,50.72Z"/>
  <path class="st0" d="M169.77,119.65c-5.37.23-10.58,1.33-15.78,2.53.51-6.58,5.74-12.25,13.18-15.02l-.26-12.62C72.17,110.38,0,192.75,0,292c0,74.98,41.19,140.37,102.23,174.65,7.18-8.09,21.5-17.76,21.5-17.76l-18.18-237.88c0-.21-1.23-66.34,48.56-85.63v-.02h.02c5.09-2.02,10.32-4,15.69-5.04.16-.02.3-.19.3-.35-.02-.19-.16-.33-.35-.33ZM153.94,123.79v.02h-.05s.02-.02.05-.02Z"/>
  <path class="st0" d="M153.94,123.79v.02h-.05s.02-.02.05-.02Z"/>
  <path class="st0" d="M269.49,210.53l33.7-.65s60.11,28.61,15.15,83.65l-36.14,20.99.72,37.91s-2.49,10.86-18.71,11.18l.84,43.3,6.46-.13c.91-.02,1.67.71,1.69,1.62l.48,25.4s20.31,13.32,33.75,27.36c55.95-35.49,93.07-98,93.07-169.17,0-110.59-89.65-200.24-200.24-200.24-5.69,0-11.32.26-16.87.74l2.21,14.13c7.65,2.3,13.27,7.67,14.23,14.18l.02.35c59.81,8.25,67.24,65.52,68.1,83.79l-26.85,2.16c-2.14.16-2.02,3.44.14,3.44l28.26-.02Z"/>
  <path class="st0" d="M166.92,94.55l-1.41-73.19c-4.71-1.11-8.23-5.31-8.34-10.34-.11-5.98,4.63-10.91,10.61-11.02,5.98-.14,10.94,4.63,11.04,10.61.08,4.55-2.63,8.47-6.58,10.15l11.13,71.73-16.46,2.06Z"/>
  <g>
    <path class="st0" d="M153.64,123.88l.26-.07c-.16.05-.26.07-.26.07Z"/>
    <path class="st0" d="M153.94,123.79v.02h-.05s.02-.02.05-.02Z"/>
    <path class="st0" d="M153.94,123.79v.02h-.05s.02-.02.05-.02Z"/>
  </g>
  <g>
    <path class="st0" d="M455.98,260.56v-23.65h71.18v23.65h-71.18ZM473.94,349.92v-125.71c0-7.01,1.53-13.25,4.6-18.73,3.07-5.47,7.3-9.78,12.7-12.92,5.4-3.14,11.68-4.71,18.83-4.71,4.96,0,9.56.84,13.8,2.52,4.23,1.68,7.81,3.98,10.73,6.9l-8.32,20.37c-1.9-1.6-3.91-2.85-6.02-3.72-2.12-.88-4.13-1.31-6.02-1.31-2.92,0-5.36.47-7.34,1.42-1.97.95-3.43,2.37-4.38,4.27-.95,1.9-1.43,4.16-1.43,6.79v124.84h-27.16ZM549.72,349.92v-162.07h27.16v162.07h-27.16Z"/>
    <path class="st0" d="M660.54,352.11c-12.12,0-22.81-2.55-32.08-7.67-9.27-5.11-16.5-12.08-21.68-20.91-5.18-8.83-7.78-18.94-7.78-30.33,0-9.05,1.46-17.3,4.38-24.75,2.92-7.45,6.97-13.91,12.16-19.38,5.18-5.47,11.39-9.71,18.62-12.7,7.23-2.99,15.15-4.49,23.76-4.49,7.59,0,14.67,1.46,21.24,4.38,6.57,2.92,12.26,6.9,17.08,11.94,4.82,5.04,8.5,11.02,11.06,17.96,2.55,6.94,3.76,14.49,3.61,22.67l-.22,9.42h-93.52l-5.04-18.4h76l-3.5,3.72v-4.82c-.44-4.52-1.9-8.5-4.38-11.94-2.48-3.43-5.66-6.13-9.53-8.1-3.87-1.97-8.14-2.96-12.81-2.96-7.15,0-13.18,1.39-18.07,4.16-4.89,2.77-8.58,6.76-11.06,11.94-2.48,5.18-3.72,11.64-3.72,19.38s1.57,13.94,4.71,19.49c3.14,5.55,7.59,9.82,13.36,12.81,5.77,2.99,12.52,4.49,20.26,4.49,5.4,0,10.36-.87,14.89-2.63,4.52-1.75,9.42-4.89,14.67-9.42l13.36,18.62c-3.94,3.65-8.43,6.76-13.47,9.31-5.04,2.56-10.33,4.56-15.88,6.02-5.55,1.46-11.02,2.19-16.42,2.19Z"/>
    <path class="st0" d="M722.08,349.92l45.77-61.32,15.33,18.4-29.35,42.93h-31.76ZM808.81,349.92l-32.85-44.46-6.13-8.32-47.52-62.64h33.29l31.98,43.36,6.79,9.2,47.09,62.86h-32.63ZM794.35,296.04l-14.67-18.18,26.5-43.36h31.76l-43.58,61.54Z"/>
    <path class="st0" d="M906.92,352.11c-11.54,0-21.83-2.59-30.88-7.77-9.05-5.18-16.2-12.3-21.46-21.36-5.26-9.05-7.89-19.34-7.89-30.88s2.63-21.83,7.89-30.88c5.26-9.05,12.41-16.17,21.46-21.36,9.05-5.18,19.35-7.77,30.88-7.77s21.61,2.59,30.66,7.77c9.05,5.18,16.17,12.3,21.35,21.36,5.18,9.05,7.77,19.35,7.77,30.88s-2.59,21.83-7.77,30.88c-5.18,9.05-12.3,16.17-21.35,21.36-9.05,5.18-19.27,7.77-30.66,7.77ZM906.92,328.23c6.28,0,11.86-1.6,16.75-4.82,4.89-3.21,8.76-7.52,11.61-12.92,2.85-5.4,4.19-11.53,4.05-18.4.14-7.01-1.21-13.21-4.05-18.62-2.85-5.4-6.72-9.67-11.61-12.81-4.89-3.14-10.48-4.71-16.75-4.71s-11.94,1.57-16.97,4.71c-5.04,3.14-8.95,7.45-11.72,12.92-2.77,5.47-4.16,11.64-4.16,18.51s1.39,13,4.16,18.4c2.77,5.4,6.68,9.71,11.72,12.92,5.04,3.21,10.69,4.82,16.97,4.82Z"/>
  </g>
</svg>