<?xml version="1.0" encoding="UTF-8"?>
<svg xmlns="http://www.w3.org/2000/svg" viewBox="0 0 400 468.38">
  <defs>
    <style>
      .st0 { fill: #fff; }
    </style>
  </defs>
  <path class="st0" d="M252.29,468.38s0-.02-.02-.05c-6.72-8.21-24.55-24.45-29.52-28.96-.84-.74-1.3-1.81-1.28-2.93l.05-18.13,33.08-.65s8.23,1.93-2.3,50.72Z"/>
  <path class="st0" d="M169.77,119.65c-5.37.23-10.58,1.33-15.78,2.53.51-6.58,5.74-12.25,13.18-15.02l-.26-12.62C72.17,110.38,0,192.75,0,292c0,74.98,41.19,140.37,102.23,174.65,7.18-8.09,21.5-17.76,21.5-17.76l-18.18-237.88c0-.21-1.23-66.34,48.56-85.63v-.02h.02c5.09-2.02,10.32-4,15.69-5.04.16-.02.3-.19.3-.35-.02-.19-.16-.33-.35-.33ZM153.94,123.79v.02h-.05s.02-.02.05-.02Z"/>
  <path class="st0" d="M153.94,123.79v.02h-.05s.02-.02.05-.02Z"/>
  <path class="st0" d="M269.49,210.53l33.7-.65s60.11,28.61,15.15,83.65l-36.14,20.99.72,37.91s-2.49,10.86-18.71,11.18l.84,43.3,6.46-.13c.91-.02,1.67.71,1.69,1.62l.48,25.4s20.31,13.32,33.75,27.36c55.95-35.49,93.07-98,93.07-169.17,0-110.59-89.65-200.24-200.24-200.24-5.69,0-11.32.26-16.87.74l2.21,14.13c7.65,2.3,13.27,7.67,14.23,14.18l.02.35c59.81,8.25,67.24,65.52,68.1,83.79l-26.85,2.16c-2.14.16-2.02,3.44.14,3.44l28.26-.02Z"/>
  <path class="st0" d="M166.92,94.55l-1.41-73.19c-4.71-1.11-8.23-5.31-8.34-10.34-.11-5.98,4.63-10.91,10.61-11.02,5.98-.14,10.94,4.63,11.04,10.61.08,4.55-2.63,8.47-6.58,10.15l11.13,71.73-16.46,2.06Z"/>
</svg>
